<svg xmlns="http://www.w3.org/2000/svg" width="12.374" height="16" viewBox="0 0 12.374 16">
  <path id="path" d="M9.68,2.5c3.345,0,6.327,2.764,6.182,5.818C15.716,11.664,11.353,18.5,9.68,18.5S3.644,11.736,3.5,8.318C3.353,5.264,6.334,2.5,9.68,2.5Zm0,14.473.655-.655a24.141,24.141,0,0,0,1.745-2.327,13.31,13.31,0,0,0,2.327-5.673c.073-2.255-2.182-4.364-4.727-4.364S4.88,6.064,4.953,8.318A12.968,12.968,0,0,0,7.28,13.991a16.136,16.136,0,0,0,1.745,2.327,2.777,2.777,0,0,0,.655.655Zm0-5.745a2.545,2.545,0,1,1,2.545-2.545A2.577,2.577,0,0,1,9.68,11.227Zm0-1.455A1.091,1.091,0,1,0,8.589,8.682,1.119,1.119,0,0,0,9.68,9.773Z" transform="translate(-3.493 -2.5)"/>
</svg>
