<svg xmlns="http://www.w3.org/2000/svg" width="16.306" height="21.191" viewBox="0 0 16.306 21.191">
  <g id="Groupe_8469" data-name="Groupe 8469" transform="translate(0.75 1.75)">
    <g id="Groupe_8468" data-name="Groupe 8468" transform="translate(0 0)">
      <g id="Groupe_8466" data-name="Groupe 8466" transform="translate(3.413 -1)">
        <path id="Tracé_3536" data-name="Tracé 3536" d="M654.359,104.478a3.99,3.99,0,1,1-3.99-3.99A3.99,3.99,0,0,1,654.359,104.478Z" transform="translate(-646.379 -100.488)" fill="none" stroke="#000" stroke-width="1.5"/>
      </g>
      <g id="Groupe_8467" data-name="Groupe 8467" transform="translate(0 9.346)">
        <path id="Tracé_3537" data-name="Tracé 3537" d="M649.472,112.29h0a7.4,7.4,0,0,0-7.4,7.4h0a1.943,1.943,0,0,0,1.943,1.942h10.921a1.942,1.942,0,0,0,1.942-1.942h0A7.4,7.4,0,0,0,649.472,112.29Z" transform="translate(-642.069 -112.29)" fill="none" stroke="#000" stroke-width="1.5"/>
      </g>
    </g>
  </g>
</svg>
