<svg xmlns="http://www.w3.org/2000/svg" xmlns:xlink="http://www.w3.org/1999/xlink" width="38.208" height="39.208" viewBox="0 0 38.208 39.208">
  <defs>
    <filter id="Tracé_68706" x="0" y="0" width="36.015" height="36.015" filterUnits="userSpaceOnUse">
      <feOffset dy="2" input="SourceAlpha"/>
      <feGaussianBlur stdDeviation="1.5" result="blur"/>
      <feFlood flood-opacity="0.161"/>
      <feComposite operator="in" in2="blur"/>
      <feComposite in="SourceGraphic"/>
    </filter>
    <filter id="Tracé_3" x="13.52" y="14.52" width="24.687" height="24.687" filterUnits="userSpaceOnUse">
      <feOffset dy="3" input="SourceAlpha"/>
      <feGaussianBlur stdDeviation="3" result="blur-2"/>
      <feFlood flood-opacity="0.161"/>
      <feComposite operator="in" in2="blur-2"/>
      <feComposite in="SourceGraphic"/>
    </filter>
  </defs>
  <g id="Groupe_3" data-name="Groupe 3" transform="translate(4.5 2.5)">
    <g transform="matrix(1, 0, 0, 1, -4.5, -2.5)" filter="url(#Tracé_68706)">
      <g id="Tracé_68706-2" data-name="Tracé 68706" transform="translate(4.5 16.01) rotate(-45)" fill="none" stroke-linecap="round">
        <path d="M9.551,0A9.551,9.551,0,1,1,0,9.551,9.551,9.551,0,0,1,9.551,0Z" stroke="none"/>
        <path d="M 9.551120758056641 2.5 C 5.663121223449707 2.5 2.5 5.663121223449707 2.5 9.551120758056641 C 2.5 13.43912124633789 5.663121223449707 16.60224151611328 9.551120758056641 16.60224151611328 C 13.43912124633789 16.60224151611328 16.60224151611328 13.43912124633789 16.60224151611328 9.551120758056641 C 16.60224151611328 5.663121223449707 13.43912124633789 2.5 9.551120758056641 2.5 M 9.551120758056641 0 C 14.8260612487793 0 19.10224151611328 4.276181221008301 19.10224151611328 9.551120758056641 C 19.10224151611328 14.8260612487793 14.8260612487793 19.10224151611328 9.551120758056641 19.10224151611328 C 4.276181221008301 19.10224151611328 0 14.8260612487793 0 9.551120758056641 C 0 4.276181221008301 4.276181221008301 0 9.551120758056641 0 Z" stroke="none" fill="#78aca4"/>
      </g>
    </g>
    <g transform="matrix(1, 0, 0, 1, -4.5, -2.5)" filter="url(#Tracé_3)">
      <path id="Tracé_3-2" data-name="Tracé 3" d="M0,0V4.457" transform="translate(24.29 22.29) rotate(-45)" fill="none" stroke="#78aca4" stroke-linecap="round" stroke-width="2.5"/>
    </g>
  </g>
</svg>
